<svg xmlns="http://www.w3.org/2000/svg" viewBox="0 0 1000 650" width="100%" height="100%">
  <defs>
    <!-- Sky & Background Gradients -->
    <linearGradient id="skyGrad" x1="0%" y1="0%" x2="0%" y2="100%">
      <stop offset="0%" stop-color="#080710" />
      <stop offset="40%" stop-color="#151226" />
      <stop offset="70%" stop-color="#341c3d" />
      <stop offset="100%" stop-color="#672944" />
    </linearGradient>

    <radialGradient id="floodlightGlow" cx="50%" cy="50%" r="50%">
      <stop offset="0%" stop-color="#ffeedd" stop-opacity="0.8" />
      <stop offset="30%" stop-color="#ffd599" stop-opacity="0.3" />
      <stop offset="100%" stop-color="#ffa500" stop-opacity="0" />
    </radialGradient>

    <linearGradient id="lightBeamLeft" x1="0%" y1="0%" x2="60%" y2="100%">
      <stop offset="0%" stop-color="#fff4dd" stop-opacity="0.25" />
      <stop offset="100%" stop-color="#fff4dd" stop-opacity="0" />
    </linearGradient>

    <linearGradient id="lightBeamRight" x1="100%" y1="0%" x2="40%" y2="100%">
      <stop offset="0%" stop-color="#fff4dd" stop-opacity="0.25" />
      <stop offset="100%" stop-color="#fff4dd" stop-opacity="0" />
    </linearGradient>

    <!-- Ramp Materials -->
    <linearGradient id="woodRamp" x1="0%" y1="0%" x2="0%" y2="100%">
      <stop offset="0%" stop-color="#d49b6a" />
      <stop offset="50%" stop-color="#b27847" />
      <stop offset="100%" stop-color="#8a5327" />
    </linearGradient>

    <linearGradient id="rampShadow" x1="0%" y1="0%" x2="100%" y2="0%">
      <stop offset="0%" stop-color="#000" stop-opacity="0.5" />
      <stop offset="15%" stop-color="#000" stop-opacity="0" />
      <stop offset="85%" stop-color="#000" stop-opacity="0" />
      <stop offset="100%" stop-color="#000" stop-opacity="0.5" />
    </linearGradient>

    <linearGradient id="copingMetal" x1="0%" y1="0%" x2="0%" y2="100%">
      <stop offset="0%" stop-color="#ffffff" />
      <stop offset="30%" stop-color="#b0b7bd" />
      <stop offset="70%" stop-color="#545b61" />
      <stop offset="100%" stop-color="#24282b" />
    </linearGradient>

    <linearGradient id="deckWood" x1="0%" y1="0%" x2="100%" y2="0%">
      <stop offset="0%" stop-color="#804a23" />
      <stop offset="100%" stop-color="#543014" />
    </linearGradient>

    <!-- Skater Shading -->
    <linearGradient id="hoodieGrad" x1="0%" y1="0%" x2="100%" y2="100%">
      <stop offset="0%" stop-color="#00e5ff" />
      <stop offset="100%" stop-color="#006699" />
    </linearGradient>

    <linearGradient id="pantsGrad" x1="0%" y1="0%" x2="0%" y2="100%">
      <stop offset="0%" stop-color="#2b333d" />
      <stop offset="100%" stop-color="#15191e" />
    </linearGradient>

    <linearGradient id="boardGrip" x1="0%" y1="0%" x2="0%" y2="100%">
      <stop offset="0%" stop-color="#222" />
      <stop offset="100%" stop-color="#111" />
    </linearGradient>

    <linearGradient id="boardGraphic" x1="0%" y1="0%" x2="100%" y2="0%">
      <stop offset="0%" stop-color="#ff0055" />
      <stop offset="50%" stop-color="#ffcc00" />
      <stop offset="100%" stop-color="#00ffcc" />
    </linearGradient>

    <!-- Filter for Motion Blur / Glow -->
    <filter id="glow" x="-20%" y="-20%" width="140%" height="140%">
      <feGaussianBlur stdDeviation="4" result="blur" />
      <feMerge>
        <feMergeNode in="blur" />
        <feMergeNode in="SourceGraphic" />
      </feMerge>
    </filter>

    <filter id="sparkGlow" x="-50%" y="-50%" width="200%" height="200%">
      <feGaussianBlur stdDeviation="2" result="blur" />
      <feMerge>
        <feMergeNode in="blur" />
        <feMergeNode in="SourceGraphic" />
      </feMerge>
    </filter>

    <!-- Embedded CSS Keyframes for High Precision Physics Animation -->
    <style>
      /* 
         PHYSICS CONSTANTS:
         Halfpipe flat bottom: Y ~ 455
         Copings: Left (180, 240), Right (820, 240)
         Period: 7.0s loop
         Physics timeline:
           0% : Grind right coping (v ~ 0, stalling, sparks)
           5% : Drop in down right vert (gravity accelerating, angle rotates from 75deg to 0deg)
          18% : Compressing hard through bottom transition (max velocity, max Gs, crouching)
          28% : Pumping through flat bottom (high horizontal speed)
          38% : Climbing left transition (gravity decelerating, converts KE to PE, rising up)
          44% : Launching off left coping into the vert air! (exits lip at 90deg vertical)
          51% : Apex of air (hangtime, v_y = 0, float, stylish Method Air grab, board tweak)
          58% : Gravity accelerates skater back down toward coping
          64% : Re-entry touchdown on left coping transition (matching curve tangent)
          74% : Compressing at bottom flat, massive speed
          85% : Climbing right transition, decelerating
          94% : Reaching right lip, hooking truck onto steel coping
         100% : 50-50 grind, sparks fly, loop seamlessly resets!
      */

      .skater-simulator {
        animation: skaterMotion 7s cubic-bezier(0.3, 0.0, 0.7, 1.0) infinite;
        transform-origin: 0px 0px;
      }

      @keyframes skaterMotion {
        /* Right Coping Grind */
        0% {
          transform: translate(820px, 240px) rotate(-85deg);
        }
        4% {
          transform: translate(818px, 244px) rotate(-80deg);
        }
        /* Dropping in - accelerating down right curve */
        10% {
          transform: translate(750px, 325px) rotate(-55deg);
        }
        16% {
          transform: translate(650px, 420px) rotate(-22deg);
        }
        /* Bottom Flat - maximum speed */
        22% {
          transform: translate(540px, 455px) rotate(0deg);
        }
        28% {
          transform: translate(430px, 455px) rotate(0deg);
        }
        /* Climbing left transition - decelerating */
        34% {
          transform: translate(320px, 420px) rotate(25deg);
        }
        40% {
          transform: translate(220px, 335px) rotate(65deg);
        }
        44% {
          transform: translate(180px, 240px) rotate(90deg);
        }
        /* Vertical Air above Left Coping (Ballistic Hangtime) */
        47% {
          transform: translate(165px, 160px) rotate(115deg);
        }
        51% {
          /* APEX: Float, tweaked Method grab */
          transform: translate(150px, 110px) rotate(155deg);
        }
        55% {
          transform: translate(162px, 150px) rotate(210deg);
        }
        60% {
          transform: translate(175px, 205px) rotate(250deg);
        }
        /* Re-entry catch on transition */
        64% {
          transform: translate(180px, 240px) rotate(270deg);
        }
        /* Speeding down left transition */
        68% {
          transform: translate(230px, 340px) rotate(245deg);
        }
        73% {
          transform: translate(330px, 425px) rotate(200deg);
        }
        /* Bottom Flat return - high speed pump */
        78% {
          transform: translate(450px, 455px) rotate(180deg);
        }
        84% {
          transform: translate(580px, 455px) rotate(180deg);
        }
        /* Climbing right transition */
        90% {
          transform: translate(710px, 395px) rotate(145deg);
        }
        94% {
          transform: translate(800px, 280px) rotate(105deg);
        }
        /* Lock into coping grind */
        97% {
          transform: translate(820px, 240px) rotate(95deg);
        }
        100% {
          transform: translate(820px, 240px) rotate(-85deg);
        }
      }

      /* Body Articulation: Crouch during compression (G-force), Extend on takeoff, Tweak during grab */
      .pose-legs {
        animation: legsAnimate 7s ease-in-out infinite;
        transform-origin: 0px -25px;
      }
      @keyframes legsAnimate {
        0%, 4%   { transform: scaleY(0.9) translateY(2px); }
        15%, 22% { transform: scaleY(0.65) translateY(9px); } /* Deep squat at max Gs */
        28%      { transform: scaleY(0.85) translateY(3px); } /* Pumping */
        40%      { transform: scaleY(0.75) translateY(6px); } /* Compression */
        44%      { transform: scaleY(0.95) translateY(0px); } /* Pop */
        51%      { transform: scaleY(0.55) scaleX(1.1) translateY(12px) skewX(-15deg); } /* Bone/Tweak in Air */
        60%      { transform: scaleY(0.8) translateY(4px); }  /* Catching board */
        64%      { transform: scaleY(0.7) translateY(7px); }  /* Absorption on landing */
        74%, 80% { transform: scaleY(0.65) translateY(9px); } /* Max G crouch */
        88%      { transform: scaleY(0.85) translateY(3px); } /* Extension pump */
        95%, 100%{ transform: scaleY(0.9) translateY(2px); }
      }

      .pose-torso {
        animation: torsoAnimate 7s ease-in-out infinite;
        transform-origin: 0px -35px;
      }
      @keyframes torsoAnimate {
        0%, 4%   { transform: rotate(-5deg); }
        18%      { transform: rotate(15deg) translateY(6px); }
        28%      { transform: rotate(5deg); }
        44%      { transform: rotate(-10deg); }
        51%      { transform: rotate(35deg) translate(-4px, 10px); } /* Method arch */
        64%      { transform: rotate(-15deg) translateY(4px); }
        76%      { transform: rotate(15deg) translateY(6px); }
        94%      { transform: rotate(-5deg); }
        100%     { transform: rotate(-5deg); }
      }

      .pose-lead-arm {
        animation: leadArmAnimate 7s ease-in-out infinite;
        transform-origin: 10px -52px;
      }
      @keyframes leadArmAnimate {
        0%, 10%  { transform: rotate(15deg); }
        20%, 35% { transform: rotate(-25deg); } /* Wind assist */
        44%      { transform: rotate(30deg); }
        51%      { transform: rotate(85deg) scale(0.9); } /* Grabbing board rail! */
        60%      { transform: rotate(10deg); }
        75%      { transform: rotate(-20deg); }
        100%     { transform: rotate(15deg); }
      }

      .pose-back-arm {
        animation: backArmAnimate 7s ease-in-out infinite;
        transform-origin: -10px -52px;
      }
      @keyframes backArmAnimate {
        0%, 10%  { transform: rotate(-20deg); }
        20%, 35% { transform: rotate(35deg); }
        44%      { transform: rotate(-45deg); }
        51%      { transform: rotate(-75deg); } /* Counter balance flair */
        64%      { transform: rotate(-30deg); }
        75%      { transform: rotate(35deg); }
        100%     { transform: rotate(-20deg); }
      }

      /* Board & Wheels dynamics */
      .wheel-spin {
        animation: wheelSpin 0.35s linear infinite;
        transform-origin: center;
      }
      @keyframes wheelSpin {
        0% { transform: rotate(0deg); }
        100% { transform: rotate(360deg); }
      }

      /* Dynamic Shadow on Ramp Wall & Ground */
      .skater-shadow {
        animation: shadowAnimate 7s cubic-bezier(0.3, 0.0, 0.7, 1.0) infinite;
      }
      @keyframes shadowAnimate {
        0% {
          transform: translate(820px, 245px) scale(0.9);
          opacity: 0.7;
        }
        22%, 28% {
          transform: translate(485px, 460px) scale(1.1);
          opacity: 0.8;
        }
        44% {
          transform: translate(180px, 245px) scale(0.85);
          opacity: 0.6;
        }
        /* Shadow stays on ramp coping wall and fades/diffuses as skater flies high into the air */
        51% {
          transform: translate(175px, 245px) scale(0.45);
          opacity: 0.15;
          filter: blur(8px);
        }
        64% {
          transform: translate(180px, 245px) scale(0.85);
          opacity: 0.6;
          filter: blur(2px);
        }
        78% {
          transform: translate(500px, 460px) scale(1.1);
          opacity: 0.8;
        }
        97%, 100% {
          transform: translate(820px, 245px) scale(0.9);
          opacity: 0.7;
        }
      }

      /* Sparks on Coping Grind */
      .grind-sparks {
        animation: sparksAnimate 7s linear infinite;
      }
      @keyframes sparksAnimate {
        0%, 3% {
          opacity: 1;
          transform: translate(820px, 238px) scale(1);
        }
        4%, 94% {
          opacity: 0;
          transform: translate(820px, 238px) scale(0.2);
        }
        96%, 100% {
          opacity: 1;
          transform: translate(820px, 238px) scale(1.2);
        }
      }

      /* Motion Speed Streaks */
      .speed-streaks {
        animation: streakOpacity 7s ease-in-out infinite;
      }
      @keyframes streakOpacity {
        0%, 15%  { opacity: 0; }
        20%, 30% { opacity: 0.6; }
        35%, 45% { opacity: 0.1; }
        48%, 62% { opacity: 0; }
        70%, 82% { opacity: 0.6; }
        90%, 100%{ opacity: 0; }
      }
    </style>
  </defs>

  <!-- ================= BACKGROUND & SKATEPARK ENVIRONMENT ================= -->
  <!-- Night / Sunset Gradient Sky -->
  <rect width="1000" height="650" fill="url(#skyGrad)" />

  <!-- Distant City Silhouette & Palm Trees -->
  <g fill="#0b0914" opacity="0.8">
    <rect x="40" y="280" width="45" height="180" />
    <rect x="65" y="240" width="35" height="220" />
    <polygon points="65,240 82,210 100,240" />
    <rect x="120" y="310" width="55" height="150" />
    <rect x="230" y="340" width="70" height="120" />
    <rect x="740" y="290" width="50" height="170" />
    <rect x="860" y="260" width="65" height="200" />
    <rect x="900" y="300" width="45" height="160" />
    <!-- Distant Lights -->
    <circle cx="75" cy="260" r="1.5" fill="#ffdd99" opacity="0.6" />
    <circle cx="85" cy="280" r="1.5" fill="#ffdd99" opacity="0.6" />
    <circle cx="880" cy="290" r="1.5" fill="#00eeff" opacity="0.6" />
    <circle cx="875" cy="320" r="1.5" fill="#ffdd99" opacity="0.6" />
  </g>

  <!-- Floodlight Towers -->
  <!-- Left Light Tower -->
  <g>
    <line x1="80" y1="360" x2="80" y2="70" stroke="#1d1e28" stroke-width="5" />
    <line x1="60" y1="360" x2="80" y2="70" stroke="#151620" stroke-width="3" />
    <line x1="100" y1="360" x2="80" y2="70" stroke="#151620" stroke-width="3" />
    <!-- Cross braces -->
    <line x1="68" y1="260" x2="92" y2="260" stroke="#1a1b26" stroke-width="2" />
    <line x1="72" y1="170" x2="88" y2="170" stroke="#1a1b26" stroke-width="2" />
    <!-- Lamp head -->
    <rect x="60" y="55" width="40" height="18" rx="3" fill="#3a3d52" />
    <polygon points="60,65 240,400 450,470 75,70" fill="url(#lightBeamLeft)" />
    <circle cx="80" cy="64" r="28" fill="url(#floodlightGlow)" />
  </g>

  <!-- Right Light Tower -->
  <g>
    <line x1="920" y1="360" x2="920" y2="70" stroke="#1d1e28" stroke-width="5" />
    <line x1="900" y1="360" x2="920" y2="70" stroke="#151620" stroke-width="3" />
    <line x1="940" y1="360" x2="920" y2="70" stroke="#151620" stroke-width="3" />
    <!-- Cross braces -->
    <line x1="908" y1="260" x2="932" y2="260" stroke="#1a1b26" stroke-width="2" />
    <line x1="912" y1="170" x2="928" y2="170" stroke="#1a1b26" stroke-width="2" />
    <!-- Lamp head -->
    <rect x="900" y="55" width="40" height="18" rx="3" fill="#3a3d52" />
    <polygon points="940,65 925,70 550,470 760,400" fill="url(#lightBeamRight)" />
    <circle cx="920" cy="64" r="28" fill="url(#floodlightGlow)" />
  </g>

  <!-- ================= THE HALFPIPE (VERT RAMP) ================= -->
  <!-- 
      RAMP GEOMETRY:
      Left Deck: X: 40 to 180, Y: 240
      Left Coping: (180, 240)
      Left Vert Transition Curve: Radius = 215, Center at (395, 240)
      Arc goes from (180, 240) down to (395, 455)
      Flat Bottom: Line from (395, 455) to (605, 455)
      Right Vert Transition Curve: Center at (605, 240)
      Arc goes from (605, 455) up to (820, 240)
      Right Coping: (820, 240)
      Right Deck: X: 820 to 960, Y: 240
  -->

  <!-- Ramp Support Substructure & Timber Frame -->
  <g id="ramp-framework">
    <!-- Ground fill -->
    <rect x="0" y="475" width="1000" height="175" fill="#0d0d13" />
    <line x1="0" y1="475" x2="1000" y2="475" stroke="#222330" stroke-width="2" />

    <!-- Solid wooden under-structure outer polygon -->
    <path d="M 40 240 
             L 180 240 
             A 215 215 0 0 0 395 455 
             L 605 455 
             A 215 215 0 0 0 820 240 
             L 960 240 
             L 960 490 
             L 40 490 Z" 
          fill="#1c130d" stroke="#000" stroke-width="2" />

    <!-- Exposed vertical ribs/studs under ramp for architectural vert look -->
    <g stroke="#2d1c10" stroke-width="3.5" opacity="0.7">
      <line x1="100" y1="240" x2="100" y2="490" />
      <line x1="140" y1="240" x2="140" y2="490" />
      <line x1="220" y1="270" x2="220" y2="490" />
      <line x1="280" y1="330" x2="280" y2="490" />
      <line x1="340" y1="400" x2="340" y2="490" />
      <line x1="660" y1="400" x2="660" y2="490" />
      <line x1="720" y1="330" x2="720" y2="490" />
      <line x1="780" y1="270" x2="780" y2="490" />
      <line x1="860" y1="240" x2="860" y2="490" />
      <line x1="900" y1="240" x2="900" y2="490" />
      <!-- Diagonal structural braces -->
      <line x1="40" y1="470" x2="180" y2="250" />
      <line x1="180" y1="470" x2="320" y2="350" />
      <line x1="820" y1="250" x2="960" y2="470" />
      <line x1="680" y1="350" x2="820" y2="470" />
    </g>

    <!-- Main Riding Surface Sheets (Birch Ply with high friction coating) -->
    <path d="M 180 240 
             A 215 215 0 0 0 395 455 
             L 605 455 
             A 215 215 0 0 0 820 240 
             L 820 252 
             A 227 227 0 0 1 605 467 
             L 395 467 
             A 227 227 0 0 1 180 252 Z" 
          fill="url(#woodRamp)" />

    <!-- Surface Sheeting Seams (Skatepark panel lines) -->
    <path d="M 205 270 A 215 215 0 0 0 207 274" stroke="#71421f" stroke-width="2" />
    <path d="M 252 330 A 215 215 0 0 0 258 338" stroke="#71421f" stroke-width="2" />
    <path d="M 320 400 A 215 215 0 0 0 330 408" stroke="#71421f" stroke-width="2" />
    <line x1="465" y1="455" x2="465" y2="467" stroke="#71421f" stroke-width="2" />
    <line x1="535" y1="455" x2="535" y2="467" stroke="#71421f" stroke-width="2" />
    <path d="M 675 405 A 215 215 0 0 1 685 397" stroke="#71421f" stroke-width="2" />
    <path d="M 744 336 A 215 215 0 0 1 750 328" stroke="#71421f" stroke-width="2" />

    <!-- Internal Ramp Ambient Occlusion Shadow -->
    <path d="M 180 240 
             A 215 215 0 0 0 395 455 
             L 605 455 
             A 215 215 0 0 0 820 240 
             L 820 248
             A 220 220 0 0 1 605 460
             L 395 460
             A 220 220 0 0 1 180 248 Z" 
          fill="url(#rampShadow)" />

    <!-- Left & Right Deck Platforms -->
    <rect x="40" y="240" width="140" height="15" fill="url(#deckWood)" stroke="#1a0d06" stroke-width="1.5" />
    <rect x="820" y="240" width="140" height="15" fill="url(#deckWood)" stroke="#1a0d06" stroke-width="1.5" />

    <!-- Platform Safety Railings -->
    <!-- Left Rail -->
    <g stroke="#616773" stroke-width="3" stroke-linecap="round">
      <line x1="45" y1="240" x2="45" y2="175" />
      <line x1="95" y1="240" x2="95" y2="175" />
      <line x1="145" y1="240" x2="145" y2="175" />
      <line x1="40" y1="175" x2="155" y2="175" stroke-width="4" stroke="#858d9c" />
      <line x1="45" y1="205" x2="150" y2="205" stroke-width="2.5" />
    </g>
    <!-- Right Rail -->
    <g stroke="#616773" stroke-width="3" stroke-linecap="round">
      <line x1="855" y1="240" x2="855" y2="175" />
      <line x1="905" y1="240" x2="905" y2="175" />
      <line x1="955" y1="240" x2="955" y2="175" />
      <line x1="845" y1="175" x2="960" y2="175" stroke-width="4" stroke="#858d9c" />
      <line x1="850" y1="205" x2="955" y2="205" stroke-width="2.5" />
    </g>

    <!-- Heavy Steel Coping Pipes (The Lip where tricks are locked) -->
    <!-- Left Coping -->
    <circle cx="180" cy="240" r="7.5" fill="url(#copingMetal)" stroke="#111" stroke-width="1.5" />
    <line x1="176" y1="234" x2="182" y2="234" stroke="#ffffff" stroke-width="1.5" stroke-linecap="round" opacity="0.8" />

    <!-- Right Coping -->
    <circle cx="820" cy="240" r="7.5" fill="url(#copingMetal)" stroke="#111" stroke-width="1.5" />
    <line x1="816" y1="234" x2="822" y2="234" stroke="#ffffff" stroke-width="1.5" stroke-linecap="round" opacity="0.8" />
  </g>

  <!-- Speed Wind Lines in Ramp Transition (Animated opacity during high speed) -->
  <g class="speed-streaks" stroke="#ffffff" stroke-width="1.5" stroke-linecap="round" opacity="0.4">
    <path d="M 360 440 L 420 440" />
    <path d="M 330 425 L 380 435" />
    <path d="M 580 440 L 640 440" />
    <path d="M 620 435 L 670 425" />
  </g>

  <!-- Dynamic Ramp Contact Shadow -->
  <ellipse class="skater-shadow" cx="0" cy="0" rx="26" ry="6" fill="#000000" />

  <!-- Coping Grind Sparks Generator -->
  <g class="grind-sparks" filter="url(#sparkGlow)">
    <line x1="0" y1="0" x2="18" y2="-12" stroke="#fffb00" stroke-width="2.5" />
    <line x1="0" y1="0" x2="12" y2="-22" stroke="#ff8800" stroke-width="2" />
    <line x1="0" y1="0" x2="-8" y2="-15" stroke="#ffffff" stroke-width="1.5" />
    <line x1="0" y1="0" x2="22" y2="-4" stroke="#ff3700" stroke-width="2" />
    <circle cx="0" cy="0" r="4" fill="#ffffff" />
  </g>

  <!-- ================= ANIMATED SKATER RIG ================= -->
  <!-- 
      The master skater group is driven along the physics path via CSS transform.
      Center of origin is positioned between skateboard trucks/wheels at ramp level.
  -->
  <g class="skater-simulator">
    
    <!-- ================= SKATEBOARD ================= -->
    <g id="skateboard" transform="translate(0, -6)">
      <!-- Wheels -->
      <!-- Back Wheel -->
      <g transform="translate(-24, 0)">
        <circle cx="0" cy="0" r="5.5" fill="#e6e6e6" stroke="#333" stroke-width="1" />
        <circle class="wheel-spin" cx="0" cy="0" r="3" fill="#cf4444" stroke="#222" stroke-width="0.8" stroke-dasharray="2,2" />
      </g>
      <!-- Front Wheel -->
      <g transform="translate(24, 0)">
        <circle cx="0" cy="0" r="5.5" fill="#e6e6e6" stroke="#333" stroke-width="1" />
        <circle class="wheel-spin" cx="0" cy="0" r="3" fill="#cf4444" stroke="#222" stroke-width="0.8" stroke-dasharray="2,2" />
      </g>

      <!-- Aluminum Trucks & Baseplates -->
      <rect x="-26" y="-5" width="5" height="4" fill="#99aab5" rx="1" />
      <rect x="21" y="-5" width="5" height="4" fill="#99aab5" rx="1" />
      <polygon points="-27,-3 -21,-3 -22,-1 -26,-1" fill="#555" />
      <polygon points="21,-3 27,-3 26,-1 22,-1" fill="#555" />

      <!-- Skateboard Deck (7-ply Canadian Maple with kicks) -->
      <!-- Nose & Tail upward concave kicks -->
      <path d="M -38 -10 
               Q -34 -6 -26 -6 
               L 26 -6 
               Q 34 -6 38 -10 
               L 39 -8 
               Q 33 -4 25 -4 
               L -25 -4 
               Q -33 -4 -39 -8 Z" 
            fill="url(#boardGraphic)" stroke="#800a26" stroke-width="0.5" />

      <!-- Deck Grip Tape (Top dark surface with center brand reveal) -->
      <path d="M -37.5 -9.5 
               Q -34 -6 -26 -6 
               L 26 -6 
               Q 34 -6 37.5 -9.5 
               L 36.5 -10.5 
               Q 33 -7.2 25 -7.2 
               L -25 -7.2 
               Q -33 -7.2 -36.5 -10.5 Z" 
            fill="url(#boardGrip)" />
      <!-- Grip tape colored stripe -->
      <line x1="-2" y1="-6.5" x2="2" y2="-6.5" stroke="#ff0055" stroke-width="1" />
    </g>

    <!-- ================= SKATER BODY (ARTICULATED HIERARCHY) ================= -->
    <g id="skater-rider">
      
      <!-- Back Arm (Right Arm in stance) - Counterbalance -->
      <g class="pose-back-arm">
        <!-- Shoulder/Bicep -->
        <path d="M -8 -50 L -22 -40" stroke="#00507a" stroke-width="6.5" stroke-linecap="round" />
        <!-- Forearm -->
        <path d="M -22 -40 L -30 -26" stroke="#f0a87a" stroke-width="5" stroke-linecap="round" />
        <!-- Hand / Wrist Guard -->
        <circle cx="-31" cy="-24" r="3.2" fill="#222" />
      </g>

      <!-- Legs & Lower Body (Kinematic Pumping & Compression) -->
      <g class="pose-legs">
        <!-- Rear Leg (Right) -->
        <g id="leg-back">
          <!-- Thigh -->
          <path d="M -8 -30 L -22 -18" stroke="#1c2127" stroke-width="8" stroke-linecap="round" />
          <!-- Shin -->
          <path d="M -22 -18 L -24 -6" stroke="#252d36" stroke-width="7" stroke-linecap="round" />
          <!-- Skate Shoe (Suede with rubber sole) -->
          <path d="M -29 -7 L -17 -6 L -16 -1 L -29 -1 Z" fill="#b02a37" rx="1.5" />
          <line x1="-29" y1="-1" x2="-16" y2="-1" stroke="#ffffff" stroke-width="1.8" />
        </g>

        <!-- Front Leg (Left - Lead foot over front bolts) -->
        <g id="leg-front">
          <!-- Thigh -->
          <path d="M 6 -30 L 16 -17" stroke="#2b333d" stroke-width="8.5" stroke-linecap="round" />
          <!-- Shin -->
          <path d="M 16 -17 L 22 -6" stroke="#384350" stroke-width="7" stroke-linecap="round" />
          <!-- Knee wrinkle -->
          <circle cx="16" cy="-17" r="4" fill="#20262e" />
          <!-- Skate Shoe -->
          <path d="M 17 -7 L 29 -6 L 30 -1 L 17 -1 Z" fill="#b02a37" rx="1.5" />
          <line x1="17" y1="-1" x2="30" y2="-1" stroke="#ffffff" stroke-width="1.8" />
        </g>
      </g>

      <!-- Torso & Clothing Layer -->
      <g class="pose-torso">
        <!-- Hips / Pelvis -->
        <ellipse cx="-1" cy="-31" rx="9" ry="6" fill="#1c2127" />
        
        <!-- Hoodie / Windbreaker -->
        <path d="M -9 -32 
                 L -12 -51 
                 Q 0 -54 11 -50 
                 L 8 -32 
                 Q -1 -29 -9 -32 Z" 
              fill="url(#hoodieGrad)" stroke="#004d73" stroke-width="0.8" />
        
        <!-- Hoodie Creases & Depth -->
        <path d="M -6 -48 Q 2 -40 5 -34" stroke="#008cb3" stroke-width="2" fill="none" stroke-linecap="round" />
        <path d="M -10 -40 Q -4 -35 -7 -32" stroke="#004d73" stroke-width="1.5" fill="none" />

        <!-- Neck -->
        <line x1="0" y1="-51" x2="1" y2="-56" stroke="#f0a87a" stroke-width="4.5" stroke-linecap="round" />

        <!-- Skater Head & Helmet (Vert Safety Standard) -->
        <g id="head" transform="translate(2, -61)">
          <!-- Face profile -->
          <ellipse cx="2" cy="2" rx="6.5" ry="7" fill="#f0a87a" />
          <!-- Nose & Chin -->
          <path d="M 7 1 L 9 3 L 6 6 L 3 7" fill="#f0a87a" />
          
          <!-- Eye & Focused Brows -->
          <ellipse cx="5.5" cy="1.5" rx="1.2" ry="1.5" fill="#111" />
          <line x1="3.5" y1="-1" x2="7.5" y2="0.5" stroke="#4a2511" stroke-width="1" />

          <!-- Half-Shell Pro-Tec Style Vert Helmet -->
          <path d="M -7 2 
                   C -8 -7, 4 -12, 10 -4 
                   C 10 -1, 9 3, 7 4 
                   C 7 4, -4 4, -7 2 Z" 
                fill="#16171a" stroke="#2e3138" stroke-width="1" />
          
          <!-- Helmet Highlight line -->
          <path d="M -4 -6 C 0 -9 6 -7 8 -2" stroke="#484f59" stroke-width="1.5" fill="none" stroke-linecap="round" />
          
          <!-- Helmet Ear Cutout & Chinstrap -->
          <path d="M 0 3 L 2 8 L 5 8" fill="none" stroke="#d62828" stroke-width="1.2" />
        </g>

        <!-- Lead Arm (Left Arm) - Grabs Board in Method Air -->
        <g class="pose-lead-arm">
          <!-- Shoulder / Bicep -->
          <path d="M 8 -48 L 18 -36" stroke="#00e5ff" stroke-width="6.5" stroke-linecap="round" />
          <!-- Forearm extending down towards skateboard rail -->
          <path d="M 18 -36 L 15 -18" stroke="#f0a87a" stroke-width="5" stroke-linecap="round" />
          <!-- Hand with wrist protection (reaches for tweak grab) -->
          <circle cx="15" cy="-16" r="3.2" fill="#222" />
        </g>
      </g>

    </g> <!-- End skater-rider -->

  </g> <!-- End skater-simulator -->

  <!-- Foreground Ramp Lip Highlights -->
  <circle cx="180" cy="240" r="3" fill="#ffffff" opacity="0.4" />
  <circle cx="820" cy="240" r="3" fill="#ffffff" opacity="0.4" />

</svg>